<?xml version="1.0" encoding="UTF-8" standalone="no"?>
<!-- Created with Inkscape (http://www.inkscape.org/) -->

<svg
   xmlns:dc="http://purl.org/dc/elements/1.1/"
   xmlns:cc="http://creativecommons.org/ns#"
   xmlns:rdf="http://www.w3.org/1999/02/22-rdf-syntax-ns#"
   xmlns:svg="http://www.w3.org/2000/svg"
   xmlns="http://www.w3.org/2000/svg"
   xmlns:sodipodi="http://sodipodi.sourceforge.net/DTD/sodipodi-0.dtd"
   xmlns:inkscape="http://www.inkscape.org/namespaces/inkscape"
   version="1.1"
   id="svg2"
   xml:space="preserve"
   width="523.74933"
   height="524.16602"
   viewBox="0 0 523.74933 524.16602"
   sodipodi:docname="pie.svg"
   inkscape:version="0.92.3 (2405546, 2018-03-11)"
   inkscape:export-filename="/home/fwyzard/pie3.png"
   inkscape:export-xdpi="147.14"
   inkscape:export-ydpi="147.14"><metadata
     id="metadata8"><rdf:RDF><cc:Work
         rdf:about=""><dc:format>image/svg+xml</dc:format><dc:type
           rdf:resource="http://purl.org/dc/dcmitype/StillImage" /><dc:title></dc:title></cc:Work></rdf:RDF></metadata><defs
     id="defs6" /><sodipodi:namedview
     pagecolor="#ffffff"
     bordercolor="#666666"
     borderopacity="1"
     objecttolerance="10"
     gridtolerance="10"
     guidetolerance="10"
     inkscape:pageopacity="0"
     inkscape:pageshadow="2"
     inkscape:window-width="1920"
     inkscape:window-height="973"
     id="namedview4"
     showgrid="false"
     fit-margin-top="0"
     fit-margin-left="0"
     fit-margin-right="0"
     fit-margin-bottom="0"
     inkscape:zoom="0.4469697"
     inkscape:cx="65.628182"
     inkscape:cy="430.36227"
     inkscape:window-x="0"
     inkscape:window-y="40"
     inkscape:window-maximized="1"
     inkscape:current-layer="g10" /><g
     id="g10"
     inkscape:groupmode="layer"
     inkscape:label="CMS"
     transform="matrix(1.3333333,0,0,-1.3333333,-163.69792,839.51691)"><rect
       id="rect611"
       width="781.15259"
       height="780.75"
       x="-43.180981"
       y="-870.45862"
       transform="scale(1,-1)"
       style="fill:#ffffff;fill-opacity:1;stroke:#ffffff;stroke-width:0.75;stroke-opacity:1" /><g
       id="g1738"><ellipse
         style="fill:#03a6e9;fill-opacity:1;stroke-width:0.75"
         ry="389.7092"
         rx="390.05096"
         transform="scale(1,-1)"
         cy="-480.74936"
         cx="347.92072"
         id="path609" /><circle
         style="fill:#fbbf14;fill-opacity:1;stroke-width:0.75"
         transform="scale(1,-1)"
         r="226.65063"
         cy="-480.11258"
         cx="348.12103"
         id="path607" /><circle
         style="fill:#efe9f6;fill-opacity:1;stroke-width:0.75"
         transform="scale(1,-1)"
         r="152.61459"
         cy="-479.0596"
         cx="347.12604"
         id="path605" /><circle
         style="fill:#bfb3e0;fill-opacity:1;stroke-width:0.75"
         transform="scale(1,-1)"
         r="90.170998"
         cy="-480.08359"
         cx="347.09711"
         id="path603" /><circle
         style="fill:#2aaf5a;fill-opacity:1;stroke-width:0.75"
         transform="scale(1,-1)"
         r="85.721619"
         cy="-480.08359"
         cx="347.39532"
         id="path601" /><circle
         style="fill:#70c83b;fill-opacity:1;stroke-width:0.75"
         transform="scale(1,-1)"
         r="45.083954"
         cy="-480.08359"
         cx="347.39532"
         id="path599" /><circle
         style="fill:#a6d584;fill-opacity:1;stroke-width:0.75"
         transform="scale(1,-1)"
         r="23.507603"
         cy="-480.08359"
         cx="347.09711"
         id="path597" /></g><path
       inkscape:connector-curvature="0"
       id="path58-3"
       style="fill:none;stroke:#f6ddbd;stroke-width:7.49895096;stroke-linecap:round;stroke-linejoin:round;stroke-miterlimit:4;stroke-dasharray:none;stroke-opacity:1"
       d="m 633.31987,744.58101 c 0,0 -64.99091,-76.10059 -166.18159,-134.46768 C 364.7599,551.06276 347.5296,479.50621 347.5296,479.50621" /><path
       inkscape:connector-curvature="0"
       id="path58-3-8"
       style="fill:none;stroke:#f6ddbd;stroke-width:8.19535065;stroke-linecap:round;stroke-linejoin:round;stroke-miterlimit:4;stroke-dasharray:none;stroke-opacity:1"
       d="m 735.59796,483.29263 c 0,0 -98.83669,-14.75457 -212.34609,15.51736 -114.84083,30.62887 -175.55299,-18.78688 -175.55299,-18.78688" /><path
       inkscape:connector-curvature="0"
       id="path66-9-8"
       style="fill:none;stroke:#e73626;stroke-width:5.46356726;stroke-linecap:round;stroke-linejoin:round;stroke-miterlimit:4;stroke-dasharray:none;stroke-opacity:1"
       d="m 735.59796,483.29263 c 0,0 -98.83669,-14.75457 -212.34609,15.51736 -114.84083,30.62887 -175.55299,-18.78688 -175.55299,-18.78688" /><path
       inkscape:connector-curvature="0"
       id="path66-9"
       style="fill:none;stroke:#e73626;stroke-width:4.99930048;stroke-linecap:round;stroke-linejoin:round;stroke-miterlimit:4;stroke-dasharray:none;stroke-opacity:1"
       d="m 633.31987,744.58101 c 0,0 -64.99091,-76.10059 -166.18159,-134.46768 C 364.7599,551.06276 347.5296,479.50621 347.5296,479.50621" /><path
       style="fill:#ffffff;fill-opacity:1;stroke:#ffffff;stroke-width:2;stroke-miterlimit:4;stroke-dasharray:none;stroke-opacity:1"
       d="m 685.34961,-150.29688 -4.37695,4.79297 c -42.0502,46.054273 -93.87598,91.586239 -149.45118,131.300785 -8.68529,6.2064265 -9.61433,7.09352 -8.64062,8.25 0.60009,0.7127733 3.56478,4.1445201 6.58789,7.625 40.955,47.151625 66.49036,107.593185 72.35156,171.251955 0.50071,5.43813 0.96055,9.93445 1.02149,9.99219 0.3136,0.29682 31.14432,4.46301 42.82422,5.7871 12.4049,1.40628 42.25618,3.69448 55.37109,4.24415 28.742,1.20464 72.14541,0.16263 98.47851,-2.36329 7.61341,-0.73029 15.37485,-1.35418 17.24805,-1.38671 l 3.40625,-0.0586 -0.42578,-6.72265 c -0.23349,-3.69794 -0.62243,-10.46126 -0.86523,-15.0293 -2.5132,-47.2976 -13.7415,-101.412226 -30.49219,-146.962892 -21.7258,-59.079745 -54.07867,-114.015361 -95.19336,-161.636718 z m -164.29883,143.20313 -8.00781,5.3984375 c -17.21811,11.605293 -30.52496,19.9443535 -50.65625,31.7480465 -14.0548,8.240814 -28.6442,17.425296 -28.4668,17.919922 0.0446,0.1244 2.14904,2.152733 4.67774,4.507813 13.0313,12.136959 25.13755,27.102822 34.71875,42.921875 11.2899,18.640136 19.69886,39.544596 24.44336,60.767576 0.5394,2.41259 1.06066,4.12308 1.29296,4.23828 0.2141,0.10622 4.0394,0.89724 8.5,1.75977 9.1736,1.77388 16.47981,3.48219 33.97852,7.9375 18.6672,4.75279 35.19617,8.35023 53.41406,11.62695 3.7684,0.6778 6.91703,1.24776 6.9961,1.26563 0.3655,0.0821 -0.75669,-13.22279 -1.83789,-21.78125 -7.6881,-60.85536 -33.69717,-117.599925 -75.13477,-163.9277375 z m -87.58789,55.066406 -0.84961,0.53711 c -4.38269,2.769533 -17.34951,12.17038 -25.0039,18.126953 -12.35512,9.6146 -27.94065,23.388017 -37.30665,32.96875 l -1.61523,1.652341 3.01367,2.25586 c 10.012,7.49683 20.25783,18.36087 27.38672,29.03711 3.9558,5.92424 8.6986,14.81352 11.1582,20.91602 l 1.10157,2.73632 1.25976,-0.14843 c 7.3868,-0.8679 33.22618,-1.15358 43.76758,-0.48438 12.03831,0.76423 25.63705,2.25438 35.93555,3.9375 6.308,1.03095 6.19714,1.02661 6.02343,0.24024 -4.34909,-19.68079 -9.69759,-34.89839 -18.05468,-51.36719 C 469.84299,87.814526 455.18793,68.278208 438.48633,52.667969 Z m -65.09961,53.691404 c -0.0352,0.006 -0.0627,0.0213 -0.082,0.043 -0.17689,0.19847 -1.03465,1.12517 -1.90625,2.06055 l -1.58594,1.70117 2.24414,1.60742 c 7.44551,5.33062 15.54449,13.10444 21.9336,21.05274 2.59629,3.22985 7.9152,11.08437 10,14.76953 2.13629,3.77625 5.23402,10.15743 6.32812,13.03515 0.2658,0.69918 0.26774,0.70078 2.74024,0.47266 1.3609,-0.12557 2.62007,-0.25981 2.79687,-0.29687 0.44149,-0.0927 -0.8042,-3.17059 -3.6582,-9.04493 -6.1171,-12.59117 -13.38891,-22.84397 -23.0918,-32.55664 -6.06235,-6.06838 -14.6273,-13.04407 -15.71875,-12.84375 z m -3.71875,3.87696 -1.25781,1.38867 c -11.38701,12.5551 -17.84528,20.34484 -24.98828,30.14258 -3.0055,4.12242 -7.45313,10.58145 -7.45313,10.82421 0,0.0871 0.92098,0.77932 2.04688,1.53907 6.4832,4.37484 12.07428,9.96698 16.45508,16.45898 1.0166,1.50664 1.51622,2.02224 1.86132,1.91797 14.513,-4.38385 24.48813,-6.77192 36.82813,-8.81445 5.29229,-0.87602 12.12815,-1.83532 15.31055,-2.14844 1.03829,-0.10215 1.88867,-0.21972 1.88867,-0.26172 0,-0.30789 -2.25046,-5.21356 -3.91797,-8.54101 -5.46729,-10.90967 -12.52007,-20.66055 -21.23047,-29.34961 -4.44549,-4.4347 -7.63303,-7.20669 -12.42773,-10.8125 z m -33.93359,42.55273 -1.66211,2.57617 c -4.05291,6.28335 -7.6483,12.40611 -10.90821,18.58203 l -1.9375,3.67188 2.12891,1.67969 c 1.17011,0.924 2.68735,2.25341 3.37305,2.95507 0.6857,0.70167 1.35043,1.27539 1.47656,1.27539 0.126,0 1.6161,-0.63321 3.3125,-1.4082 6.44389,-2.94387 20.22216,-8.32399 23.28906,-9.09375 0.4063,-0.10196 0.73828,-0.2854 0.73828,-0.4082 0,-0.43712 -2.88733,-4.48777 -5.02343,-7.04688 -3.6805,-4.40956 -8.8497,-8.9765 -13.6211,-12.03515 z M 316.125,173.24219 c -0.24971,0 -5.87305,11.89378 -5.87305,12.42187 0,0.0588 1.35236,-0.64856 3.00586,-1.57226 1.6535,-0.92371 4.50128,-2.43064 6.33008,-3.34961 l 3.32617,-1.67188 -1.50781,-1.54492 c -1.47391,-1.511 -4.89205,-4.2832 -5.28125,-4.2832 z"
       transform="matrix(0.75000002,0,0,-0.75000002,122.77344,629.6377)"
       id="path1615"
       inkscape:connector-curvature="0" /></g></svg>